# xmcd
#
# Track frame offsets: 
#        150
#        17531
#        36049
#        51217
#        66780
#        83145
#        100891
#        115484
#        129043
#        147251
#        162848
#        178738
#        194448
#        212719
#        227154
#        245176
#        264624
#        280546
#        300517
#        314019
#        327711
#
# Disc length: 4690 seconds
#
# Revision: 0
# Processed by: cddbd v1.5.1PL2 Copyright (c) Steve Scherf et al.
# Submitted via: ExactAudioCopy v0.95b2
#
DISCID=32125015
DTITLE=Various Artist - Музыкальные Новости
DYEAR=2006
DGENRE=Pop
TTITLE0=Непара/Танго
TTITLE1=Максим/Лолита
TTITLE2=Звери/С Добрым Утром
TTITLE3=Основной Инстинкт/Лёд И Огонь
TTITLE4=Орбакайте Кристина/Тайна (& Мазаев Сергей)
TTITLE5=Маркин Владимир/Голуби
TTITLE6=Куликова Мила/Се Ля Ви
TTITLE7=Валерия/Ты Поймёшь
TTITLE8=Би-2/Дурочка
TTITLE9=Галкин Максим/Кто? Где? Когда? (feat. Neomaster)
TTITLE10=Бородин Арсений/Стань Моей
TTITLE11=Салтыкова Ирина/До Тебя
TTITLE12=Перова Лена/Жёлтое Дерево
TTITLE13=Паззл/Вечность
TTITLE14=Фристайл/Это Тебе Всё Кажется
TTITLE15=Пропаганда/Скучаю
TTITLE16=Власова Наташа/Оля
TTITLE17=Долина Лариса/Полоса Потерь
TTITLE18=Бьянка/Были Танцы (& Серёга)
TTITLE19=Премьер-Министр/Печаль-Река
TTITLE20=Дискотека Авария/Зло
EXTD=
EXTT0=
EXTT1=
EXTT2=
EXTT3=
EXTT4=
EXTT5=
EXTT6=
EXTT7=
EXTT8=
EXTT9=
EXTT10=
EXTT11=
EXTT12=
EXTT13=
EXTT14=
EXTT15=
EXTT16=
EXTT17=
EXTT18=
EXTT19=
EXTT20=
PLAYORDER=
